HIERARCHY
ROOT root
{
	OFFSET 0.000000 0.054209 0.736571
	CHANNELS 6 Xposition Yposition Zposition Xrotation Yrotation Zrotation
	JOINT spine04
	{
		OFFSET 0.000000 -0.030951 0.078753
		CHANNELS 6 Xposition Yposition Zposition Xrotation Yrotation Zrotation
		JOINT spine02
		{
			OFFSET 0.000000 -0.000238 0.104623
			CHANNELS 6 Xposition Yposition Zposition Xrotation Yrotation Zrotation
			JOINT spine01
			{
				OFFSET 0.000000 0.017421 0.109292
				CHANNELS 3 Xrotation Yrotation Zrotation
				JOINT neck01
				{
					OFFSET 0.000000 -0.049753 0.167208
					CHANNELS 6 Xposition Yposition Zposition Xrotation Yrotation Zrotation
					JOINT neck02
					{
						OFFSET 0.000000 0.005512 0.021217
						CHANNELS 3 Xrotation Yrotation Zrotation
						JOINT jaw
						{
							OFFSET 0.000000 -0.043573 0.063270
							CHANNELS 6 Xposition Yposition Zposition Xrotation Yrotation Zrotation
							End Site
							{
								OFFSET 0.000000 -0.008973 0.006557
							}
						}
						JOINT eye.L
						{
							OFFSET 0.023674 -0.098122 0.090003
							CHANNELS 3 Xrotation Yrotation Zrotation
							End Site
							{
								OFFSET 0.001819 -0.030370 -0.004421
							}
						}
						JOINT orbicularis03.L
						{
							OFFSET 0.023674 -0.098122 0.090003
							CHANNELS 3 Xrotation Yrotation Zrotation
							End Site
							{
								OFFSET 0.001761 -0.029014 0.005250
							}
						}
						JOINT eye.R
						{
							OFFSET -0.023674 -0.098121 0.090003
							CHANNELS 3 Xrotation Yrotation Zrotation
							End Site
							{
								OFFSET -0.001819 -0.030370 -0.004421
							}
						}
						JOINT orbicularis03.R
						{
							OFFSET -0.023674 -0.098121 0.090003
							CHANNELS 3 Xrotation Yrotation Zrotation
							End Site
							{
								OFFSET -0.001761 -0.029014 0.005250
							}
						}
						End Site
						{
							OFFSET 0.000000 0.005512 0.021217
						}
					}
				}
				JOINT clavicle.R
				{
					OFFSET -0.018367 -0.058464 0.107155
					CHANNELS 6 Xposition Yposition Zposition Xrotation Yrotation Zrotation
					JOINT upperarm01.R
					{
						OFFSET -0.132020 0.003642 -0.024313
						CHANNELS 6 Xposition Yposition Zposition Xrotation Yrotation Zrotation
						JOINT lowerarm01.R
						{
							OFFSET -0.133637 0.001770 -0.153088
							CHANNELS 6 Xposition Yposition Zposition Xrotation Yrotation Zrotation
							JOINT wrist.R
							{
								OFFSET -0.108575 -0.154815 -0.103768
								CHANNELS 6 Xposition Yposition Zposition Xrotation Yrotation Zrotation
								JOINT finger2-1.R
								{
									OFFSET -0.024321 -0.084906 -0.032804
									CHANNELS 3 Xrotation Yrotation Zrotation
									JOINT finger2-2.R
									{
										OFFSET -0.002927 -0.018838 -0.012652
										CHANNELS 3 Xrotation Yrotation Zrotation
										JOINT finger2-3.R
										{
											OFFSET 0.000460 -0.015088 -0.013862
											CHANNELS 3 Xrotation Yrotation Zrotation
											End Site
											{
												OFFSET 0.003042 -0.016083 -0.016987
											}
										}
									}
								}
								JOINT finger3-1.R
								{
									OFFSET -0.038828 -0.069770 -0.043127
									CHANNELS 3 Xrotation Yrotation Zrotation
									JOINT finger3-2.R
									{
										OFFSET -0.006387 -0.018854 -0.022184
										CHANNELS 3 Xrotation Yrotation Zrotation
										JOINT finger3-3.R
										{
											OFFSET -0.002379 -0.015757 -0.018305
											CHANNELS 3 Xrotation Yrotation Zrotation
											End Site
											{
												OFFSET 0.000156 -0.013802 -0.019326
											}
										}
									}
								}
								JOINT finger4-1.R
								{
									OFFSET -0.045586 -0.054771 -0.050312
									CHANNELS 3 Xrotation Yrotation Zrotation
									JOINT finger4-2.R
									{
										OFFSET -0.008217 -0.013209 -0.021152
										CHANNELS 3 Xrotation Yrotation Zrotation
										JOINT finger4-3.R
										{
											OFFSET -0.003839 -0.011895 -0.018031
											CHANNELS 3 Xrotation Yrotation Zrotation
											End Site
											{
												OFFSET -0.002024 -0.010563 -0.020894
											}
										}
									}
								}
								JOINT finger5-1.R
								{
									OFFSET -0.046820 -0.037780 -0.058682
									CHANNELS 3 Xrotation Yrotation Zrotation
									JOINT finger5-2.R
									{
										OFFSET -0.005233 -0.007322 -0.016539
										CHANNELS 3 Xrotation Yrotation Zrotation
										JOINT finger5-3.R
										{
											OFFSET -0.001524 -0.005483 -0.012548
											CHANNELS 3 Xrotation Yrotation Zrotation
											End Site
											{
												OFFSET -0.002248 -0.006725 -0.016024
											}
										}
									}
								}
								JOINT finger1-1.R
								{
									OFFSET -0.000927 -0.039280 -0.005363
									CHANNELS 3 Xrotation Yrotation Zrotation
									JOINT finger1-2.R
									{
										OFFSET 0.018386 -0.018805 -0.006895
										CHANNELS 3 Xrotation Yrotation Zrotation
										JOINT finger1-3.R
										{
											OFFSET 0.010991 -0.028095 -0.011249
											CHANNELS 3 Xrotation Yrotation Zrotation
											End Site
											{
												OFFSET 0.004840 -0.019091 -0.014527
											}
										}
									}
								}
							}
						}
					}
				}
				JOINT clavicle.L
				{
					OFFSET 0.018367 -0.058465 0.107155
					CHANNELS 6 Xposition Yposition Zposition Xrotation Yrotation Zrotation
					JOINT upperarm01.L
					{
						OFFSET 0.132020 0.003642 -0.024313
						CHANNELS 6 Xposition Yposition Zposition Xrotation Yrotation Zrotation
						JOINT lowerarm01.L
						{
							OFFSET 0.133638 0.001770 -0.153088
							CHANNELS 6 Xposition Yposition Zposition Xrotation Yrotation Zrotation
							JOINT wrist.L
							{
								OFFSET 0.108575 -0.154815 -0.103768
								CHANNELS 6 Xposition Yposition Zposition Xrotation Yrotation Zrotation
								JOINT finger2-1.L
								{
									OFFSET 0.024321 -0.084906 -0.032804
									CHANNELS 3 Xrotation Yrotation Zrotation
									JOINT finger2-2.L
									{
										OFFSET 0.002927 -0.018838 -0.012653
										CHANNELS 3 Xrotation Yrotation Zrotation
										JOINT finger2-3.L
										{
											OFFSET -0.000460 -0.015088 -0.013862
											CHANNELS 3 Xrotation Yrotation Zrotation
											End Site
											{
												OFFSET -0.003042 -0.016083 -0.016987
											}
										}
									}
								}
								JOINT finger3-1.L
								{
									OFFSET 0.038828 -0.069770 -0.043127
									CHANNELS 3 Xrotation Yrotation Zrotation
									JOINT finger3-2.L
									{
										OFFSET 0.006387 -0.018854 -0.022184
										CHANNELS 3 Xrotation Yrotation Zrotation
										JOINT finger3-3.L
										{
											OFFSET 0.002379 -0.015757 -0.018305
											CHANNELS 3 Xrotation Yrotation Zrotation
											End Site
											{
												OFFSET -0.000156 -0.013802 -0.019326
											}
										}
									}
								}
								JOINT finger4-1.L
								{
									OFFSET 0.045586 -0.054771 -0.050312
									CHANNELS 3 Xrotation Yrotation Zrotation
									JOINT finger4-2.L
									{
										OFFSET 0.008217 -0.013209 -0.021152
										CHANNELS 3 Xrotation Yrotation Zrotation
										JOINT finger4-3.L
										{
											OFFSET 0.003838 -0.011894 -0.018031
											CHANNELS 3 Xrotation Yrotation Zrotation
											End Site
											{
												OFFSET 0.002024 -0.010563 -0.020894
											}
										}
									}
								}
								JOINT finger5-1.L
								{
									OFFSET 0.046820 -0.037780 -0.058682
									CHANNELS 3 Xrotation Yrotation Zrotation
									JOINT finger5-2.L
									{
										OFFSET 0.005233 -0.007322 -0.016539
										CHANNELS 3 Xrotation Yrotation Zrotation
										JOINT finger5-3.L
										{
											OFFSET 0.001524 -0.005484 -0.012548
											CHANNELS 3 Xrotation Yrotation Zrotation
											End Site
											{
												OFFSET 0.002248 -0.006725 -0.016024
											}
										}
									}
								}
								JOINT finger1-1.L
								{
									OFFSET 0.000927 -0.039280 -0.005363
									CHANNELS 3 Xrotation Yrotation Zrotation
									JOINT finger1-2.L
									{
										OFFSET -0.018386 -0.018805 -0.006895
										CHANNELS 3 Xrotation Yrotation Zrotation
										JOINT finger1-3.L
										{
											OFFSET -0.010991 -0.028095 -0.011249
											CHANNELS 3 Xrotation Yrotation Zrotation
											End Site
											{
												OFFSET -0.004840 -0.019091 -0.014527
											}
										}
									}
								}
							}
						}
					}
				}
			}
		}
	}
	JOINT upperleg01.R
	{
		OFFSET -0.087495 -0.048056 0.004242
		CHANNELS 6 Xposition Yposition Zposition Xrotation Yrotation Zrotation
		JOINT lowerleg01.R
		{
			OFFSET -0.034522 -0.027831 -0.333803
			CHANNELS 6 Xposition Yposition Zposition Xrotation Yrotation Zrotation
			JOINT foot.R
			{
				OFFSET -0.037458 0.009412 -0.349633
				CHANNELS 3 Xrotation Yrotation Zrotation
				JOINT toe1-1.R
				{
					OFFSET -0.003290 -0.101211 -0.050981
					CHANNELS 6 Xposition Yposition Zposition Xrotation Yrotation Zrotation
					End Site
					{
						OFFSET 0.000524 -0.066142 0.003009
					}
				}
			}
		}
	}
	JOINT upperleg01.L
	{
		OFFSET 0.087495 -0.048056 0.004242
		CHANNELS 6 Xposition Yposition Zposition Xrotation Yrotation Zrotation
		JOINT lowerleg01.L
		{
			OFFSET 0.034522 -0.027831 -0.333803
			CHANNELS 6 Xposition Yposition Zposition Xrotation Yrotation Zrotation
			JOINT foot.L
			{
				OFFSET 0.037458 0.009412 -0.349633
				CHANNELS 3 Xrotation Yrotation Zrotation
				JOINT toe1-1.L
				{
					OFFSET 0.003290 -0.101211 -0.050981
					CHANNELS 6 Xposition Yposition Zposition Xrotation Yrotation Zrotation
					End Site
					{
						OFFSET -0.000524 -0.066142 0.003009
					}
				}
			}
		}
	}
}
MOTION
Frames: 7
Frame Time:	0.016667
0 0.0542 0.7366 0 0 0 0 -0.0506 0.0788 0 0 0 0 -0.0232 0.1046 0 0 0 0 0 0 0 -0.0498 0.1672 0 0 0 0 0 0 0 -0.0436 0.0633 0 0 0 0 0 0 0 0 0 0 0 0 0 0 0 -0.0184 -0.0585 0.1072 0 0 0 -0.1356 -0.0037 -0.0169 0 0 0 -0.1336 0.0018 -0.1531 0 0 0 -0.1086 -0.1548 -0.1038 0 0 0 0 0 0 0 0 0 0 0 0 0 0 0 0 0 0 0 0 0 0 0 0 0 0 0 0 0 0 0 0 0 0 0 0 0 0 0 0 0 0 0 0 0 0 0 0 0.0184 -0.0585 0.1072 0 0 0 0.1356 -0.0037 -0.0169 0 0 0 0.1336 0.0018 -0.1531 0 0 0 0.1086 -0.1548 -0.1038 0 0 0 0 0 0 0 0 0 0 0 0 0 0 0 0 0 0 0 0 0 0 0 0 0 0 0 0 0 0 0 0 0 0 0 0 0 0 0 0 0 0 0 0 0 0 0 0 -0.0875 -0.0481 0.0042 0 0 0 -0.0345 -0.0278 -0.3338 0 0 0 0 0 0 -0.0033 -0.1012 -0.051 0 0 0 0.0875 -0.0481 0.0042 0 0 0 0.0345 -0.0278 -0.3338 0 0 0 0 0 0 0.0033 -0.1012 -0.051 0 0 0 
0.4429 -1.0215 0.6587 -28.1871 55.0696 -129.6762 0.0012 -0.0368 0.0762 11.4666 -3.231 -3.6164 0.0011 -0.0038 0.1012 10.8886 5.8891 -2.8156 0 0 0 0 -0.0422 0.161 10.8537 -2.7435 -2.8436 -38.5758 44.5382 5.4255 0 -0.0436 0.0633 0.0001 0 0 1.8732 -0.0692 -4.2312 0 0 0 1.8985 -0.0604 -3.6451 0 0 0.0001 -0.0184 -0.0573 0.1063 1.5702 -2.8933 -8.2051 -0.1356 -0.0037 -0.0169 -17.2184 14.6956 3.5696 -0.1336 0.0018 -0.1531 -71.7144 -26.457 52.9399 -0.1086 -0.1548 -0.1038 32.9079 -0.6518 -47.2667 45.7666 -24.4269 36.1897 48.1567 -17.6543 41.3499 54.9022 -16.5532 46.4916 -2.1817 -7.5679 4.2667 16.2609 -19.8238 11.7438 13.4394 -18.4345 10.0583 31.573 -38.2416 38.9073 54.2152 -43.2841 49.1499 52.105 -44.1706 50.0658 -0.263 -26.1659 12.5058 20.151 -33.1688 11.8072 23.7312 -37.1626 16.4774 -13.5871 -38.6782 -24.2253 16.0465 15.5162 -40.5498 10.5595 22.7 -51.9632 0.0184 -0.0573 0.1099 -3.4949 3.9916 -16.262 0.1356 -0.0037 -0.0169 9.9618 38.6623 -37.0614 0.1336 0.0018 -0.1531 -20.7102 11.2635 -49.7746 0.1086 -0.1548 -0.1038 0.7002 -58.6926 -1.1733 36.3821 23.5833 -25.6616 41.3031 17.476 -35.3253 46.3417 17.1744 -38.991 -6.7344 1.2016 0.1718 11.1309 14.9173 -6.2749 8.9986 13.9407 -5.3909 -9.642 0.7731 -2.657 10.3976 16.201 -3.5137 6.9041 16.404 -4.1139 -12.7974 7.2273 -3.547 8.6079 16.5089 -0.441 10.6576 21.5306 -3.6117 -9.0295 33.6512 21.3063 20.0309 -14.3956 39.8642 14.0503 -20.2543 51.6687 -0.0875 -0.0481 0.0042 -89.3169 -19.2594 -8.0157 -0.0345 -0.0278 -0.3338 66.8225 -6.132 -4.1628 24.688 -1.096 -6.7981 -0.0033 -0.1012 -0.051 0 0 0 0.0875 -0.0481 0.0042 -49.2744 -5.5559 -9.6113 0.0345 -0.0278 -0.3338 14.2227 1.3198 1.3994 44.3405 20.5528 -9.7644 0.0033 -0.1012 -0.051 0 0 0 
0.4429 -1.0215 0.6587 -28.1871 55.0696 -129.6762 0.0012 -0.0368 0.0762 11.4666 -3.231 -3.6164 0.0011 -0.0038 0.1012 10.8886 5.8891 -2.8156 0 0 0 0 -0.0422 0.161 10.8537 -2.7435 -2.8436 -38.5757 44.5382 5.4255 0 -0.0436 0.0633 0.0001 0 0 1.8732 -0.0692 -4.2313 0 0 0.0001 1.8985 -0.0604 -3.6451 0 0 0 -0.0184 -0.0573 0.1063 1.5702 -2.8933 -8.2051 -0.1356 -0.0037 -0.0169 -17.2184 14.6957 3.5696 -0.1336 0.0018 -0.1531 -71.7144 -26.4569 52.9399 -0.1086 -0.1548 -0.1038 32.9079 -0.6519 -47.2667 45.7666 -24.4269 36.1897 48.1567 -17.6543 41.3499 54.9022 -16.5532 46.4916 -2.1817 -7.5679 4.2666 16.2609 -19.8238 11.7438 13.4394 -18.4345 10.0583 31.5729 -38.2417 38.9072 54.2152 -43.2841 49.1499 52.1051 -44.1706 50.0659 -0.263 -26.1658 12.5058 20.151 -33.1688 11.8073 23.7312 -37.1625 16.4774 -13.5872 -38.6782 -24.2254 16.0465 15.5162 -40.5498 10.5595 22.7 -51.9632 0.0184 -0.0573 0.1099 -3.4949 3.9916 -16.262 0.1356 -0.0037 -0.0169 9.9618 38.6623 -37.0614 0.1336 0.0018 -0.1531 -20.7102 11.2635 -49.7746 0.1086 -0.1548 -0.1038 0.7002 -58.6926 -1.1733 36.3821 23.5833 -25.6616 41.3031 17.476 -35.3253 46.3417 17.1744 -38.9909 -6.7344 1.2016 0.1718 11.1308 14.9173 -6.2749 8.9986 13.9407 -5.3909 -9.642 0.7731 -2.6569 10.3976 16.201 -3.5137 6.9041 16.4039 -4.1139 -12.7974 7.2273 -3.547 8.6079 16.5089 -0.441 10.6576 21.5306 -3.6117 -9.0295 33.6512 21.3063 20.0309 -14.3956 39.8642 14.0503 -20.2543 51.6687 -0.0875 -0.0481 0.0042 -89.3169 -19.2594 -8.0157 -0.0345 -0.0278 -0.3338 66.8225 -6.132 -4.1628 24.6881 -1.096 -6.7981 -0.0033 -0.1012 -0.051 -0.0001 0 0 0.0875 -0.0481 0.0042 -49.2744 -5.5559 -9.6113 0.0345 -0.0278 -0.3338 14.2227 1.3199 1.3994 44.3405 20.5528 -9.7644 0.0033 -0.1012 -0.051 -0.0001 0 0 
0.4429 -1.0215 0.6587 -28.1871 55.0696 -129.6762 0.0012 -0.0368 0.0762 11.4666 -3.231 -3.6164 0.0011 -0.0038 0.1012 10.8886 5.8891 -2.8156 0 0 0 0 -0.0422 0.161 10.8537 -2.7435 -2.8435 -38.5757 44.5383 5.4255 0 -0.0436 0.0633 0.0001 0 0 1.8732 -0.0692 -4.2312 0 0 0 1.8985 -0.0605 -3.645 0 0 0 -0.0184 -0.0573 0.1063 1.5702 -2.8933 -8.2051 -0.1356 -0.0037 -0.0169 -17.2184 14.6957 3.5696 -0.1336 0.0018 -0.1531 -71.7144 -26.4569 52.9399 -0.1086 -0.1548 -0.1038 32.9079 -0.6519 -47.2667 45.7666 -24.4269 36.1897 48.1567 -17.6543 41.3499 54.9022 -16.5531 46.4916 -2.1817 -7.5679 4.2666 16.2609 -19.8238 11.7438 13.4394 -18.4345 10.0583 31.573 -38.2417 38.9073 54.2152 -43.2841 49.1498 52.1051 -44.1706 50.0659 -0.263 -26.1658 12.5058 20.151 -33.1688 11.8072 23.7312 -37.1625 16.4774 -13.5872 -38.6783 -24.2254 16.0465 15.5162 -40.5498 10.5595 22.7 -51.9633 0.0184 -0.0573 0.1099 -3.4949 3.9916 -16.262 0.1356 -0.0037 -0.0169 9.9618 38.6623 -37.0614 0.1336 0.0018 -0.1531 -20.7102 11.2635 -49.7746 0.1086 -0.1548 -0.1038 0.7002 -58.6926 -1.1733 36.3821 23.5833 -25.6616 41.3031 17.476 -35.3253 46.3417 17.1744 -38.9909 -6.7344 1.2016 0.1718 11.1308 14.9173 -6.2749 8.9986 13.9407 -5.3909 -9.642 0.7731 -2.6569 10.3976 16.201 -3.5137 6.9041 16.4039 -4.1139 -12.7974 7.2273 -3.547 8.6079 16.5089 -0.441 10.6576 21.5306 -3.6117 -9.0295 33.6512 21.3063 20.0309 -14.3956 39.8642 14.0503 -20.2543 51.6687 -0.0875 -0.0481 0.0042 -89.3169 -19.2594 -8.0157 -0.0345 -0.0278 -0.3338 66.8225 -6.132 -4.1628 24.688 -1.096 -6.7981 -0.0033 -0.1012 -0.051 0 0 -0.0001 0.0875 -0.0481 0.0042 -49.2744 -5.5559 -9.6113 0.0345 -0.0278 -0.3338 14.2227 1.3198 1.3994 44.3405 20.5528 -9.7644 0.0033 -0.1012 -0.051 -0.0001 0 0 
0.4429 -1.0215 0.6587 -28.1871 55.0696 -129.6762 0.0012 -0.0368 0.0762 11.4666 -3.231 -3.6164 0.0011 -0.0038 0.1012 10.8886 5.8891 -2.8156 0 0 0 0 -0.0422 0.161 10.8537 -2.7435 -2.8435 -38.5757 44.5383 5.4255 0 -0.0436 0.0633 0.0001 0 0 1.8732 -0.0692 -4.2313 0 0 0 1.8985 -0.0605 -3.645 0 0 0 -0.0184 -0.0573 0.1063 1.5702 -2.8933 -8.2051 -0.1356 -0.0037 -0.0169 -17.2184 14.6957 3.5696 -0.1336 0.0018 -0.1531 -71.7144 -26.4569 52.9399 -0.1086 -0.1548 -0.1038 32.9079 -0.6519 -47.2667 45.7666 -24.4269 36.1897 48.1567 -17.6543 41.3499 54.9022 -16.5531 46.4916 -2.1817 -7.5679 4.2666 16.2609 -19.8238 11.7438 13.4394 -18.4345 10.0583 31.573 -38.2417 38.9073 54.2152 -43.2841 49.1498 52.1051 -44.1706 50.0659 -0.263 -26.1658 12.5058 20.151 -33.1688 11.8072 23.7312 -37.1625 16.4774 -13.5872 -38.6783 -24.2254 16.0465 15.5162 -40.5498 10.5595 22.7 -51.9633 0.0184 -0.0573 0.1099 -3.4949 3.9916 -16.262 0.1356 -0.0037 -0.0169 9.9618 38.6623 -37.0614 0.1336 0.0018 -0.1531 -20.7102 11.2635 -49.7746 0.1086 -0.1548 -0.1038 0.7002 -58.6926 -1.1733 36.3821 23.5833 -25.6616 41.3031 17.476 -35.3253 46.3417 17.1744 -38.9909 -6.7344 1.2016 0.1718 11.1308 14.9173 -6.2749 8.9986 13.9407 -5.3909 -9.642 0.7731 -2.6569 10.3976 16.201 -3.5137 6.9041 16.4039 -4.1139 -12.7974 7.2273 -3.547 8.6079 16.5089 -0.441 10.6576 21.5306 -3.6117 -9.0295 33.6512 21.3063 20.0309 -14.3956 39.8642 14.0503 -20.2543 51.6687 -0.0875 -0.0481 0.0042 -89.3169 -19.2594 -8.0157 -0.0345 -0.0278 -0.3338 66.8225 -6.132 -4.1628 24.6881 -1.096 -6.7981 -0.0033 -0.1012 -0.051 -0.0001 0 0 0.0875 -0.0481 0.0042 -49.2744 -5.5559 -9.6113 0.0345 -0.0278 -0.3338 14.2227 1.3199 1.3994 44.3405 20.5528 -9.7644 0.0033 -0.1012 -0.051 0 0 0 
0.4429 -1.0215 0.6587 -28.1871 55.0696 -129.6762 0.0012 -0.0368 0.0762 11.4666 -3.231 -3.6164 0.0011 -0.0038 0.1012 10.8886 5.8891 -2.8156 0 0 0 0 -0.0422 0.161 10.8537 -2.7435 -2.8435 -38.5757 44.5383 5.4255 0 -0.0436 0.0633 0.0001 0 0 1.8732 -0.0692 -4.2312 0 0 0 1.8985 -0.0605 -3.645 0 0 0 -0.0184 -0.0573 0.1063 1.5702 -2.8933 -8.2051 -0.1356 -0.0037 -0.0169 -17.2184 14.6957 3.5696 -0.1336 0.0018 -0.1531 -71.7144 -26.4569 52.9399 -0.1086 -0.1548 -0.1038 32.9079 -0.6519 -47.2667 45.7666 -24.4269 36.1897 48.1567 -17.6543 41.3499 54.9022 -16.5531 46.4916 -2.1817 -7.5679 4.2666 16.2609 -19.8238 11.7438 13.4394 -18.4345 10.0583 31.573 -38.2417 38.9073 54.2152 -43.2841 49.1498 52.1051 -44.1706 50.0659 -0.263 -26.1658 12.5058 20.151 -33.1688 11.8072 23.7312 -37.1625 16.4774 -13.5872 -38.6783 -24.2254 16.0465 15.5162 -40.5498 10.5595 22.7 -51.9633 0.0184 -0.0573 0.1099 -3.4949 3.9916 -16.262 0.1356 -0.0037 -0.0169 9.9618 38.6623 -37.0614 0.1336 0.0018 -0.1531 -20.7102 11.2635 -49.7746 0.1086 -0.1548 -0.1038 0.7002 -58.6926 -1.1733 36.3821 23.5833 -25.6616 41.3031 17.476 -35.3253 46.3417 17.1744 -38.9909 -6.7344 1.2016 0.1718 11.1308 14.9173 -6.2749 8.9986 13.9407 -5.3909 -9.642 0.7731 -2.6569 10.3976 16.201 -3.5137 6.9041 16.4039 -4.1139 -12.7974 7.2273 -3.547 8.6079 16.5089 -0.441 10.6576 21.5306 -3.6117 -9.0295 33.6512 21.3063 20.0309 -14.3956 39.8642 14.0503 -20.2543 51.6687 -0.0875 -0.0481 0.0042 -89.3169 -19.2594 -8.0157 -0.0345 -0.0278 -0.3338 66.8225 -6.132 -4.1628 24.688 -1.096 -6.7981 -0.0033 -0.1012 -0.051 0 0 -0.0001 0.0875 -0.0481 0.0042 -49.2744 -5.5559 -9.6113 0.0345 -0.0278 -0.3338 14.2227 1.3198 1.3994 44.3405 20.5528 -9.7644 0.0033 -0.1012 -0.051 0 0 0 
0.4429 -1.0215 0.6587 -28.1871 55.0696 -129.6762 0.0012 -0.0368 0.0762 11.4666 -3.231 -3.6164 0.0011 -0.0038 0.1012 10.8886 5.8891 -2.8156 0 0 0 0 -0.0422 0.161 10.8537 -2.7435 -2.8435 -38.5757 44.5383 5.4255 0 -0.0436 0.0633 0.0001 0 0 1.8732 -0.0692 -4.2313 0 0 0 1.8985 -0.0605 -3.645 0 0 0 -0.0184 -0.0573 0.1063 1.5702 -2.8933 -8.2051 -0.1356 -0.0037 -0.0169 -17.2184 14.6957 3.5696 -0.1336 0.0018 -0.1531 -71.7144 -26.4569 52.9399 -0.1086 -0.1548 -0.1038 32.9079 -0.6519 -47.2667 45.7666 -24.4269 36.1897 48.1567 -17.6543 41.3499 54.9022 -16.5531 46.4916 -2.1817 -7.5679 4.2666 16.2609 -19.8238 11.7438 13.4394 -18.4345 10.0583 31.573 -38.2417 38.9073 54.2152 -43.2841 49.1498 52.1051 -44.1706 50.0659 -0.263 -26.1658 12.5058 20.151 -33.1688 11.8072 23.7312 -37.1625 16.4774 -13.5872 -38.6783 -24.2254 16.0465 15.5162 -40.5498 10.5595 22.7 -51.9633 0.0184 -0.0573 0.1099 -3.4949 3.9916 -16.262 0.1356 -0.0037 -0.0169 9.9618 38.6623 -37.0614 0.1336 0.0018 -0.1531 -20.7102 11.2635 -49.7746 0.1086 -0.1548 -0.1038 0.7002 -58.6926 -1.1733 36.3821 23.5833 -25.6616 41.3031 17.476 -35.3253 46.3417 17.1744 -38.9909 -6.7344 1.2016 0.1718 11.1308 14.9173 -6.2749 8.9986 13.9407 -5.3909 -9.642 0.7731 -2.6569 10.3976 16.201 -3.5137 6.9041 16.4039 -4.1139 -12.7974 7.2273 -3.547 8.6079 16.5089 -0.441 10.6576 21.5306 -3.6117 -9.0295 33.6512 21.3063 20.0309 -14.3956 39.8642 14.0503 -20.2543 51.6687 -0.0875 -0.0481 0.0042 -89.3169 -19.2594 -8.0157 -0.0345 -0.0278 -0.3338 66.8225 -6.132 -4.1628 24.6881 -1.096 -6.7981 -0.0033 -0.1012 -0.051 -0.0001 0 0 0.0875 -0.0481 0.0042 -49.2744 -5.5559 -9.6113 0.0345 -0.0278 -0.3338 14.2227 1.3199 1.3994 44.3405 20.5528 -9.7644 0.0033 -0.1012 -0.051 0 0 0 
